<svg
					width="115"
					height="27"
					viewBox="0 0 115 90"
					fill="none"
					xmlns="http://www.w3.org/2000/svg"
				>
					<path
						class="about-icon icon-path"
						d="M15.4332 77.2341H18.4332V74.2341V57.4488H22.2488V74.2341V77.2341H25.2488H31.427V84V87H34.427H52.146H55.146V84V74.2341V71.2341H52.146H37.427V67.2146H77.7005V71.2341H61.9616H58.9616V74.2341V84V87H61.9616H80.7005H83.7005V84V77.2341H90.3886H93.3886V74.2341V57.4488H96.8218V74.2341V77.2341H99.8218H109H112V74.2341V44.1756V41.1756H109H102.822V34.4098V31.4098H99.8218H93.3886V24.8976V21.8976H90.3886H83.7005V17.878H90.3886H93.3886V14.878V6V3H90.3886H80.7005H77.7005V6V11.878H71.5223H68.5223V14.878V21.8976H47.1151V14.878V11.878H44.1151H37.427V6V3H34.427H25.2488H22.2488V6V14.878V17.878H25.2488H31.427V21.8976H25.2488H22.2488V24.8976V31.4098H15.4332H12.4332V34.4098V41.1756H6H3V44.1756V74.2341V77.2341H6H15.4332ZM37.427 37.4098H41.1151V41.1756H37.427V37.4098ZM74.5223 37.4098H77.7005V41.1756H74.5223V37.4098Z"
						fill="#C4C4C4"
						stroke="black"
						stroke-width="6"
					/>
				</svg>