<!-- <svg width="35" height="24" viewBox="0 0 35 24" fill="none" xmlns="http://www.w3.org/2000/svg">
<path class="icon-about-stroke" d="M33.0206 0H3.6214V1.94239H1.71193V9.25103H0V14.8148H1.71193V22.1893H3.72017V24H33.1193V22.1893H34.8642V1.97531H33.0206V0Z" fill="transparent"/>
<path d="M32.9874 22.1564H3.62117V14.7819H1.74463V9.31687H3.62117V1.94238H32.9874V22.1564Z" fill="#8E25E2"/>
<mask id="mask0" mask-type="alpha" maskUnits="userSpaceOnUse" x="1" y="1" width="32" height="22">
<path d="M32.9874 22.1564H3.62117V14.7819H1.74463V9.31687H3.62117V1.94238H32.9874V22.1564Z" fill="white"/>
</mask>
<g mask="url(#mask0)">
<path d="M9.02081 22.1236V1.90958V1.61328H33.383V22.1236H9.02081Z" fill="#E7C8FF"/>
<path d="M7.24304 9.28406H5.39941V14.782H7.24304V9.28406Z" fill="#E7C8FF"/>
<path d="M31.1439 20.3125H10.897V3.85156H31.1439V20.3125Z" fill="#A12CFF"/>
<path d="M29.3003 5.62955H10.897V3.81885H31.1768V20.2798H29.3003V5.62955Z" fill="#5B0A9A"/>
<path d="M14.5846 11.0947H12.708V12.9383H14.5846V11.0947Z" fill="white"/>
<path d="M18.2718 12.9383H16.2965V16.6256H25.6463V12.9383H23.7368V14.7161H18.2718V12.9383Z" fill="white"/>
<path d="M29.3006 12.9383H27.3911V11.0947H29.3006V12.9383Z" fill="white"/>
</g>
</svg> -->

<svg width="38" height="27" viewBox="0 0 38 27" fill="none" xmlns="http://www.w3.org/2000/svg">
<path class="icon-about-stroke" d="M35.9906 0H3.94712V2.11709H1.86591V10.0831H0V16.1473H1.86591V24.1851H4.05477V26.1586H36.0982V24.1851H38V2.15297H35.9906V0Z" fill="transparent"/>
<path d="M35.9547 24.1493H3.94718V16.1115H1.90186V10.155H3.94718V2.11719H35.9547V24.1493Z" fill="#4C027A"/>
<mask id="mask0" mask-type="alpha" maskUnits="userSpaceOnUse" x="1" y="2" width="35" height="23">
<path d="M35.9547 24.1493H3.94718V16.1115H1.90186V10.155H3.94718V2.11719H35.9547V24.1493Z" fill="white"/>
</mask>
<g mask="url(#mask0)">
<path d="M9.83189 24.1129V2.08076V1.75781H36.3852V24.1129H9.83189Z" fill="#8b72eb"/>
<path d="M7.89421 10.1185H5.88477V16.111H7.89421V10.1185Z" fill="#8b72eb"/>
<path d="M33.9454 22.1397H11.8774V4.19824H33.9454V22.1397Z" fill="#7346a4"/>
<path d="M31.936 6.13567H11.8774V4.16211H33.9813V22.1036H31.936V6.13567Z" fill="#45027A"/>
<path d="M15.8959 12.0928H13.8506V14.1022H15.8959V12.0928Z" fill="#00F0FF"/>
<path d="M19.9148 14.1022H17.7618V18.1211H27.9526V14.1022H25.8714V16.0399H19.9148V14.1022Z" fill="#00F0FF"/>
<path d="M31.9356 14.1022H29.8544V12.0928H31.9356V14.1022Z" fill="#00F0FF"/>
</g>
</svg>
