<svg width="35" height="24" viewBox="0 0 35 24" fill="none" xmlns="http://www.w3.org/2000/svg">
<path class="icon-about-stroke" d="M33.0206 0H3.6214V1.94239H1.71193V9.25103H0V14.8148H1.71193V22.1893H3.72017V24H33.1193V22.1893H34.8642V1.97531H33.0206V0Z" fill="transparent"/>
<path d="M32.9874 22.1564H3.62117V14.7819H1.74463V9.31687H3.62117V1.94238H32.9874V22.1564Z" fill="#8E25E2"/>
<mask id="mask0" mask-type="alpha" maskUnits="userSpaceOnUse" x="1" y="1" width="32" height="22">
<path d="M32.9874 22.1564H3.62117V14.7819H1.74463V9.31687H3.62117V1.94238H32.9874V22.1564Z" fill="white"/>
</mask>
<g mask="url(#mask0)">
<path d="M9.02081 22.1236V1.90958V1.61328H33.383V22.1236H9.02081Z" fill="#E7C8FF"/>
<path d="M7.24304 9.28406H5.39941V14.782H7.24304V9.28406Z" fill="#E7C8FF"/>
<path d="M31.1439 20.3125H10.897V3.85156H31.1439V20.3125Z" fill="#A12CFF"/>
<path d="M29.3003 5.62955H10.897V3.81885H31.1768V20.2798H29.3003V5.62955Z" fill="#5B0A9A"/>
<path d="M14.5846 11.0947H12.708V12.9383H14.5846V11.0947Z" fill="white"/>
<path d="M18.2718 12.9383H16.2965V16.6256H25.6463V12.9383H23.7368V14.7161H18.2718V12.9383Z" fill="white"/>
<path d="M29.3006 12.9383H27.3911V11.0947H29.3006V12.9383Z" fill="white"/>
</g>
</svg>
