<svg width="38" height="27" viewBox="0 0 38 27" fill="none" xmlns="http://www.w3.org/2000/svg">
<path class="icon-stroke" d="M5.5 25V26H6.5H34H35V25V24H36H37V23V4V3H36H35V2V1H34H6.5H5.5V2V3H4H3V4V9.5H2H1V10.5V16.5V17.5H2H3V23V24H4H5.5V25Z" stroke="var(--main-bg-color)" stroke-width="2"/>
<path d="M32.5242 3.28076H9.34361V5.08399H6.7041V21.705H9.34361V24.3968H32.5242V21.705H34.8501V5.08399H32.5242V3.28076Z" fill="#00AEAE"/>
<path d="M10.4673 16.609V14.5967H12.5319V12.5583H16.8439V14.5967H19.0653V16.609H16.8439V14.5967H12.5319V16.609H10.4673Z" fill="#0AF8F8"/>
<path d="M25.3374 16.609H23.0899V12.5583H25.3374V10.3892H29.7279V12.5583H31.6879V16.609H29.7279V14.5967H25.3374V16.609Z" fill="#0AF8F8"/>
<path d="M6.31207 2.02637H8.45503V24.9718H6.31207V22.9856H4.11683V16.4261H2V10.3369H4.11683V3.88186H6.31207V2.02637Z" fill="#0AA3A3"/>
<path fill-rule="evenodd" clip-rule="evenodd" d="M6.28564 22.9854V4.03843H8.45475V2H33.8567V4.03843H35.9997V22.9854H33.8567V24.9977H8.45475V22.9854H6.28564ZM10.5977 20.764H8.45475V6.12913H10.5977V4.03843H31.6354V6.12913H33.8567V20.764H31.6354V22.9854H10.5977V20.764Z" fill="#81FFFF"/>
</svg>
