<svg width="266" height="240" viewBox="0 0 266 240" fill="none" xmlns="http://www.w3.org/2000/svg">
<mask id="mask0" mask-type="alpha" maskUnits="userSpaceOnUse" x="31" y="73" width="218" height="148">
<rect width="217.078" height="146.675" transform="matrix(-1 0 0 1 248.399 73.7745)" fill="#C4C4C4"/>
</mask>
<g mask="url(#mask0)">
<rect width="280.442" height="171.316" transform="matrix(-1 0 0 1 255.44 64.9703)" fill="#64F6FF"/>
<path fill-rule="evenodd" clip-rule="evenodd" d="M229.625 223.38V148.282H196.183H191.49V181.724H121.086V148.282H66.5228H54.7889V223.38H-10.3346V71.4248H250.159V114.84V228.66H229.625V223.38ZM229.625 93.7193V114.84V119.534H66.5228V93.7193H229.625Z" fill="#1AABB5"/>
</g>
<path fill-rule="evenodd" clip-rule="evenodd" d="M37.7743 55H247.812V73.7743H266V239.223H19V73.7743H37.7743V55ZM37.7743 73.7743H64.1758V110.736H37.7743V73.7743ZM247.812 73.7743H82.3634V110.736H247.812V73.7743ZM247.812 129.511H193.836V164.713H139.273V129.511H82.3634V219.862H247.812V129.511ZM157.461 129.511H175.062V146.525H157.461V129.511ZM64.1758 129.511H37.7743V219.862H64.1758V129.511Z" fill="#0D0013"/>
</svg>
