<svg width="164" height="138" viewBox="0 0 164 138" fill="none">
    <rect width="164" height="137" fill="transparent" />
    <path
        d="M28.4545 48.1924H20.8181V111.192L28.4545 113.469L31.509 118.783L47.5454 121.06L52.1272 126.373H80.3818L87.2545 132.445H100.236L101.764 97.5297V87.6623L100.236 72.4815L96.4181 68.6864L87.2545 67.1683L80.3818 61.855L53.6545 58.8189L47.5454 55.0237L33.0363 53.5056L28.4545 48.1924Z"
        fill="#FDC272"
    />
    <path
        d="M113.982 120.301L104.818 126.373H101V72.4813L112.455 61.0958L131.545 41.3608L138.418 39.8428V94.4934L133.836 99.0476L127.727 105.12L124.673 107.397L119.327 114.987L113.982 120.301Z"
        fill="#D59E5D"
    />
    <path
        d="M41.4364 27.6973L27.691 38.3238L26.1637 49.7094L46.0182 54.2636L55.1819 58.8178L78.8546 62.613L91.8364 67.1672L101.764 71.7214L106.346 67.1672L114.746 58.8178L120.855 53.5045L130.782 42.878L138.418 38.3238V33.7696L135.364 27.6973L111.691 26.1792L107.873 23.9021L97.1819 20.866L84.9637 19.3479L81.1455 15.5527H59.0001L52.891 20.866L47.5455 27.6973H41.4364Z"
        fill="#C69355"
    />
    <path
        class="svg-bg"
        fill-rule="evenodd"
        clip-rule="evenodd"
        d="M17 115.747V43.6386H23.8727V36.8072H29.9818V50.4699H23.1091V109.675H29.9818V115.747H17ZM49.8364 56.5422V50.4699H29.9818V56.5422H49.8364ZM63.5818 50.4699H56.7091V56.5422H49.8364V64.1325H83.4364V70.2048H97.1818V129.41H83.4364V123.337H49.8364V117.265H29.9818V123.337H49.8364V129.41H83.4364V137H103.291V129.41H109.4V123.337H117.036V117.265H109.4V123.337H103.291V70.2048H109.4V64.1325H103.291V70.2048H97.1818V64.1325H83.4364V56.5422H63.5818V50.4699ZM76.5636 43.6386H63.5818V50.4699H76.5636V43.6386ZM76.5636 43.6386H83.4364V37.5663H76.5636V43.6386ZM117.036 115.747H123.145V109.675H130.018V102.843H136.891V96.012H143V30.7349H136.891V24.6627H109.4V17.8313H83.4364V24.6627H97.1818V30.7349H103.291V24.6627H109.4V30.7349H136.891V36.8072H130.018V43.6386H123.145V50.4699H117.036V56.5422H123.145V50.4699H130.018V43.6386H136.891V96.012H130.018V102.843H123.145V109.675H117.036V115.747ZM83.4364 17.0723V11H57.4727V17.0723H49.8364V24.6627H37.6182V30.7349H29.9818V36.8072H37.6182V30.7349H49.8364V24.6627H57.4727V17.0723H83.4364ZM83.4364 30.7349V36.8072H95.6545V30.7349H83.4364ZM110.164 63.3735H116.273V57.3012H110.164V63.3735Z"
        fill="#100317"
    />
    <path
        d="M29.9818 115.747H17V43.6386H23.8727V36.8072H29.9818M29.9818 115.747V109.675H23.1091V50.4699H29.9818M29.9818 115.747V117.265M49.8364 123.337H29.9818V117.265M49.8364 123.337V129.41H83.4364M49.8364 123.337V117.265H29.9818M49.8364 123.337H83.4364V129.41M83.4364 129.41V137H103.291V129.41H109.4V123.337M83.4364 129.41H97.1818V70.2048M109.4 123.337H117.036V117.265M109.4 123.337H103.291V70.2048M109.4 123.337V117.265H117.036M117.036 115.747H123.145V109.675M117.036 115.747V117.265M117.036 115.747V109.675H123.145M123.145 109.675H130.018V102.843M123.145 109.675V102.843H130.018M130.018 102.843H136.891V96.012M130.018 102.843V96.012H136.891M136.891 96.012H143V30.7349H136.891M136.891 96.012V43.6386H130.018M136.891 30.7349V24.6627H109.4M136.891 30.7349V36.8072H130.018V43.6386M136.891 30.7349H109.4V24.6627M109.4 24.6627V17.8313H83.4364M109.4 24.6627H103.291V30.7349H97.1818V24.6627H83.4364V17.8313M83.4364 17.8313V17.0723M57.4727 17.0723V11H83.4364V17.0723M57.4727 17.0723H49.8364V24.6627M57.4727 17.0723V24.6627H49.8364M57.4727 17.0723H83.4364M49.8364 24.6627H37.6182V30.7349M49.8364 24.6627V30.7349H37.6182M37.6182 30.7349H29.9818V36.8072M37.6182 30.7349V36.8072H29.9818M29.9818 36.8072V50.4699M29.9818 50.4699V56.5422H49.8364M29.9818 50.4699H49.8364V56.5422M97.1818 70.2048H103.291M97.1818 70.2048V64.1325H83.4364M97.1818 70.2048H83.4364V64.1325M103.291 70.2048H109.4V64.1325H103.291V70.2048ZM130.018 43.6386V50.4699H123.145M130.018 43.6386H123.145V50.4699M49.8364 56.5422V64.1325H83.4364M49.8364 56.5422H56.7091V50.4699H63.5818M83.4364 64.1325V56.5422H63.5818V50.4699M63.5818 50.4699V43.6386H76.5636M63.5818 50.4699H76.5636V43.6386M76.5636 43.6386V37.5663H83.4364M76.5636 43.6386H83.4364V37.5663M83.4364 37.5663V36.8072M83.4364 36.8072V30.7349H95.6545V36.8072H83.4364ZM123.145 50.4699V56.5422H117.036V50.4699H123.145ZM110.164 63.3735H116.273V57.3012H110.164V63.3735Z"
        stroke="black"
    />
</svg>