<svg width="34" height="34" viewBox="0 0 34 34" xmlns="http://www.w3.org/2000/svg">
<path class="icon-stroke" d="M2 4.76911H1V5.76911V22.5679V23.5679H2H2.82215V24.4649V25.4649H3.82215H4.61934V26.2871V27.2871H5.61934H17.0265H17.9735V28.209V29.209H18.9735H19.8206V30.0062V31.0062H20.8206H21.493V31.8783V32.8783H22.493H24.39H25.39V31.8783V27.2871H28.1342H29.1342V26.2871V25.4649H29.9813H30.9813V24.4649V23.5679H31.9033H32.9033V22.5679V5.76911V4.76911H31.9033H30.9813V3.87207V2.87207H29.9813H29.1342V2V1H28.1342H5.61934H4.61934V2V2.87207H3.82215H2.82215V3.87207V4.76911H2Z" fill="var(--navbar-color)" stroke="var(--navbar-color)" stroke-width="2"/>
<mask id="mask0" mask-type="alpha" maskUnits="userSpaceOnUse" x="2" y="2" width="30" height="30">
<path d="M3.82215 5.76911H2V22.5679H3.82215V24.4649H5.61934V26.2871H18.9735V28.209H20.8206V30.0062H22.493V31.8783H24.39V26.2871H28.1342V24.4649H29.9813V22.5679H31.9033V5.76911H29.9813V3.87207H28.1342V2H5.61934V3.87207H3.82215V5.76911Z" fill="white"/>
</mask>
<g mask="url(#mask0)">
<path fill-rule="evenodd" clip-rule="evenodd" d="M2 5.76911H3.82215V3.87207H5.61934V2H28.1342V3.87207H29.9813V5.76911H31.9033V22.5679H29.9813V24.4649H28.1342V26.2871H24.39V34H22.493V32.1279H20.8206V30.3307H18.9735V28.4087H17.0265V26.2871H5.61934V24.4649H3.82215V22.5679H2V5.76911ZM24.4399 9.33853H9.31357V11.4852H24.4399V9.33853ZM9.31357 13.2824H24.4399V15.1794H9.31357V13.2824ZM17.4259 17.0764H9.31357V18.8986H17.4259V17.0764Z" fill="#E9D41A"/>
<path d="M27.1856 21.9934H1.37598V37.1198H33.1763V17.3008H30.4306V19.0481H28.858V20.5208H27.1856V21.9934Z" fill="#E9BB1A"/>
</g>
</svg>
