	<svg
						width="113"
						height="104"
						viewBox="0 0 113 104"
						fill="none"
					>
						<mask
							id="mask99"
							mask-type="alpha"
							maskUnits="userSpaceOnUse"
							x="0"
							y="0"
							width="113"
							height="105"
						>
							<path
								d="M0 79.0007V25.0007V11.0007H12V0.000747681H95.1203L101.5 0V11.0007H113V79.0007V93.0007H101.5V104.001H17.8797H12V93.0007H0V79.0007Z"
								fill="#fff"
							/>
						</mask>
						<g mask="url(#mask99)">
							<rect
								x="-5"
								y="-10.9993"
								width="135"
								height="122"
								fill="#23599D"
                                fill-opacity="100%"
							/>
							<path
								d="M12.5 25V52.5H0V0H52.5V2.5V11H44.5H31.5H27.5V25H12.5Z"
								fill="#4E84C1"
							/>
							<path
								d="M51.25 60.3711V82.5686V84.0007H64.3V82.5686V60.3711H73V47.4822H64.3V37.4575H73V26.0007H55.6V30.297H51.25V47.4822H44V60.3711H51.25Z"
								fill="white"
							/>
						</g>
					</svg>