<svg
						width="113"
						height="104"
						viewBox="0 0 113 104"
						fill="none"
					>
						<mask
							id="mask102"
							mask-type="alpha"
							maskUnits="userSpaceOnUse"
							x="0"
							y="0"
							width="113"
							height="105"
						>
							<path
								d="M0 79.0007V25.0007V11.0007H12V0.000747681H95.1203L101.5 0V11.0007H113V79.0007V93.0007H101.5V104.001H17.8797H12V93.0007H0V79.0007Z"
								fill="#fff"
							/>
						</mask>
						<g mask="url(#mask102)">
							<rect
								x="-5"
								y="-10.9993"
								width="135"
								height="122"
								fill="#333333"
							/>
							<path
								d="M12.5 25V52.5H0V0H52.5V2.5V11H44.5H31.5H27.5V25H12.5Z"
								fill="#5C5C5C"
							/>
							<path
								d="M51.1622 79.6838V92H68.9189V73.7721H66V70.5699H62.8378V67.614H74.7568V64.6581H77.9189V61.4559H80.8378V58.5H84V40.2721H81.0811V37.3162H77.9189V34.3603H81.0811V25H72.0811V27.9559H69.1622V31.1581H66V27.9559H50.9189V31.1581H48V27.9559H44.8378V25H36.0811V34.3603H39V37.3162H36.0811V40.2721H32.9189V58.5H36.0811V61.4559H39V64.6581H41.9189V67.614H54.0811V70.8162H51.1622V73.7721H48V76.7279H41.9189V73.7721H39V70.5699H36.0811V67.614H30V70.8162H32.9189V73.7721H36.0811V76.7279H39V79.6838H51.1622Z"
								fill="white"
							/>
						</g>
					</svg>