<svg width="35" height="35" viewBox="0 0 35 35" fill="none" xmlns="http://www.w3.org/2000/svg">
<path class="home-stroke" d="M1.90771 21.8652V23.3652H3.39694V24.8509V26.3509H4.89694H4.95385V27.9724V29.4724H6.45385H8.06768V30.9653H9.56768H11.1815V31.026V32.526H12.6815H17.2169H18.8415H21.8876H23.3876V31.026V30.9653H24.7415V29.4724H24.9338H26.423H28.0476H29.5476V27.9724V26.3509H31.0368V24.8509V23.3652H32.526V21.8652V18.7437V17.1151V12.5686V11.0686H31.0368V9.51496V8.01496H29.5368H29.4799V6.46134V4.96134H27.9799H26.4338V4.83274V3.33274H24.9338H23.3199V1.90771H21.8199H20.263H12.6138H11.1138V3.33274H9.56768H8.06768V4.83274V4.96134H6.45385H4.95385V6.46134V8.01496H3.46463V9.51496V11.0686H3.40771H1.90771V12.5686V21.8652Z" fill="#34B1F8" stroke="white" stroke-width="3"/>
<path d="M5.0166 12.5913V9.50774H6.5584V6.49117H9.57496V9.50774H11.1168V11.0495H12.6586V12.5913H15.7422V15.6749H12.6586V18.6245H14.2004V20.2333H12.6586V18.6245H11.1168V17.2167H8.03316V14.2002H6.5584V12.5913H5.0166Z" fill="#34F8B1"/>
<path d="M27.9425 11.0495H26.3337V17.2167H31.0261V12.5913H29.4172V9.50774H27.9425V11.0495Z" fill="#34F8B1"/>
<path d="M21.8423 21.7751H17.1499V24.7917H18.6917V26.3335H20.2335V29.4171H18.6917V30.8918H21.8423V29.4171H23.3171V27.8753H24.9259V26.3335H23.3171V24.7917H21.8423V21.7751Z" fill="#34F8B1"/>
<path d="M21.8423 3.47461H20.2335V6.49117H23.3171V8.03297H24.8589V4.94937H21.8423V3.47461Z" fill="#34F8B1"/>
<path fill-rule="evenodd" clip-rule="evenodd" d="M27.8754 4.94953V6.55836H26.3336V8.03313H24.8588V4.94953H27.8754ZM21.7752 3.5418H24.8588V4.94953H21.7752V3.5418ZM12.6585 3.5418V2H21.7752V3.5418H20.2335V6.55836H18.7587V3.5418H12.6585ZM23.317 8.03313H24.8588V9.57493H23.317V8.03313ZM23.317 8.03313V6.55836H20.2335V8.03313H23.317Z" fill="#34F8B1"/>
<path d="M30.892 21.7753H32.4338V12.5915H30.892V17.0828H26.3336V18.6917H30.892V21.7753Z" fill="#34F8B1"/>
<path d="M24.8588 17.0828H26.3336V11.0497H24.8588V17.0828Z" fill="#34F8B1"/>
<path d="M26.3336 9.57493V11.0497H27.8754V9.57493H26.3336Z" fill="#34F8B1"/>
<path d="M30.892 12.5915V8.03313H29.4172V6.55836H27.8754V9.57493H29.4172V12.5915H30.892Z" fill="#34F8B1"/>
<path d="M9.64196 4.94953H6.55836V6.55836H9.64196V4.94953Z" fill="#34F8B1"/>
<path d="M12.6585 3.5418H9.64196V4.94953H12.6585V3.5418Z" fill="#34F8B1"/>
<path d="M6.55836 6.55836H5.0836V9.57493H6.55836V6.55836Z" fill="#34F8B1"/>
<path d="M9.64196 6.55836V9.57493H11.1167V11.0497H12.6585V8.03313H11.1167V6.55836H9.64196Z" fill="#34F8B1"/>
<path d="M15.6751 12.5915V15.541H17.2169V12.5915H15.6751Z" fill="#34F8B1"/>
<path d="M12.6585 18.6917H14.2674V17.0828H15.6751V15.541H12.6585V18.6917Z" fill="#34F8B1"/>
<path d="M8.10016 18.6917H11.1167V17.0828H8.10016V18.6917Z" fill="#34F8B1"/>
<path fill-rule="evenodd" clip-rule="evenodd" d="M12.6585 12.5915V11.0497H15.6751V12.5915H12.6585Z" fill="#34F8B1"/>
<path d="M14.2674 18.6917V20.0994H15.6751V18.6917H14.2674Z" fill="#34F8B1"/>
<path d="M14.2674 20.0994H12.6585V21.7753H14.2674V20.0994Z" fill="#34F8B1"/>
<path d="M12.6585 18.6917H11.1167V20.0994H12.6585V18.6917Z" fill="#34F8B1"/>
<path d="M8.10016 14.1333H6.55836V17.0828H8.10016V14.1333Z" fill="#34F8B1"/>
<path d="M6.55836 12.5915H5.0836V14.1333H6.55836V12.5915Z" fill="#34F8B1"/>
<path d="M5.0836 9.57493H3.5418V12.5915H5.0836V9.57493Z" fill="#34F8B1"/>
<path d="M2 21.7753H3.5418V12.5915H2V21.7753Z" fill="#34F8B1"/>
<path d="M17.2169 20.0994V21.7753H21.8423V20.0994H17.2169Z" fill="#34F8B1"/>
<path d="M15.6751 24.7248H17.2169V21.7753H15.6751V24.7248Z" fill="#34F8B1"/>
<path d="M17.2169 26.2666H18.8257V24.7248H17.2169V26.2666Z" fill="#34F8B1"/>
<path d="M18.8257 26.2666V29.2831H20.3675V26.2666H18.8257Z" fill="#34F8B1"/>
<path d="M23.317 21.7753H21.8423V24.7248H23.317V21.7753Z" fill="#34F8B1"/>
<path d="M24.8588 24.7248H23.317V26.2666H24.8588V24.7248Z" fill="#34F8B1"/>
<path d="M21.8423 30.8249H24.8588V29.2831H27.9424V27.8084H26.3336V26.2666H24.8588V27.8084H23.183V29.2831H21.8423V30.8249Z" fill="#34F8B1"/>
<path d="M27.9424 27.8084H29.4172V24.7248H27.9424V27.8084Z" fill="#34F8B1"/>
<path d="M29.4172 24.7248H30.892V21.7753H29.4172V24.7248Z" fill="#34F8B1"/>
<path d="M12.7256 30.8249V32.3667H21.8423V30.8249H18.8257V29.2831H17.2169V30.8249H12.7256Z" fill="#34F8B1"/>
<path d="M9.64196 29.2831V30.8249H12.7256V29.2831H9.64196Z" fill="#34F8B1"/>
<path d="M6.55836 27.8084V29.2831H9.64196V27.8084H6.55836Z" fill="#34F8B1"/>
<path d="M5.01656 24.7248V27.8084H6.55836V24.7248H5.01656Z" fill="#34F8B1"/>
<path d="M3.5418 21.7753V24.7248H5.01656V21.7753H3.5418Z" fill="#34F8B1"/>
</svg>
