<svg
						width="113"
						height="104"
						viewBox="0 0 113 104"
						fill="none"
						xmlns="http://www.w3.org/2000/svg"
					>
						<mask
							id="mask103"
							mask-type="alpha"
							maskUnits="userSpaceOnUse"
							x="0"
							y="0"
							width="113"
							height="105"
						>
							<path
								d="M0 79.0007V25.0007V11.0007H12V0.000747681H95.1203L101.5 0V11.0007H113V79.0007V93.0007H101.5V104.001H17.8797H12V93.0007H0V79.0007Z"
								fill="#fff"
							/>
						</mask>
						<g mask="url(#mask103)">
							<rect
								x="-5"
								y="-10.9993"
								width="135"
								height="122"
								fill="url(#paint103_linear)"
							/>
							<path
								d="M12.5 25V52.5H0V0H52.5V2.5V11H44.5H31.5H27.5V25H12.5Z"
								fill="#FFD351"
							/>
							<path
								fill-rule="evenodd"
								clip-rule="evenodd"
								d="M32.5625 32.1856H29V72.8144H32.5625V75.6407H35.4125V78.8204H38.6187V82H76.3812V78.8204H79.5875V75.6407H82.7937V72.8144H86V32.1856H82.7937V29.006H79.5875V26.1796H76.3812V23H38.6187V26.1796H35.4125V29.006H32.5625V32.1856ZM35.7687 32.1856H38.6187V29.006H76.3812V32.1856H79.5875V72.8144H76.3812V75.6407H38.6187V72.8144H35.7687V32.1856ZM45.0312 47.7305H42.1812V60.0958H45.0312V63.2755H48.2375V66.1018H51.4437V69.2814H63.9125V66.1018H67.1187V63.2755H70.325V60.0958H73.5312V47.7305H70.325V44.5509H67.1187V41.7246H63.9125V38.5449H51.4437V41.7246H48.2375V44.5509H45.0312V47.7305ZM73.5312 41.3713H70.325V38.5449H67.1187V35.3653H70.325V32.1856H73.5312V35.3653H76.3812V38.5449H73.5312V41.3713ZM63.9125 44.5509H51.4437V47.7305H48.2375V60.0958H51.4437V63.2755H63.9125V60.0958H67.1187V47.7305H63.9125V44.5509Z"
								fill="white"
								stroke="white"
							/>
						</g>
						<defs>
							<linearGradient
								id="paint103_linear"
								x1="62.5"
								y1="-10.9993"
								x2="62.5"
								y2="111.001"
								gradientUnits="userSpaceOnUse"
							>
								<stop stop-color="#F8ED33" />
								<stop offset="1" stop-color="#ED3576" />
							</linearGradient>
						</defs>
					</svg>