<svg width="165" height="137" viewBox="0 0 165 137" fill="none">
					<rect width="164" height="137" fill="transparent" />
					<path
						d="M31.5743 54.9199H24.6094V112.169L31.5743 114.239L34.3603 119.067L48.9866 121.136L53.1655 125.964H78.9358L85.2042 131.482H97.0445L98.4375 99.7538V90.7871L97.0445 76.992L93.5621 73.5432L85.2042 72.1637L78.9358 67.3355L54.5585 64.5765L48.9866 61.1277L35.7532 59.7482L31.5743 54.9199Z"
						fill="#FDC272"
					/>
					<path
						d="M109.036 123.449L100.33 129.014H96.7031V79.627L107.585 69.1932L125.721 51.108L132.25 49.7168V99.7991L127.897 103.973L122.094 109.537L119.192 111.624L114.114 118.58L109.036 123.449Z"
						fill="#D59E5D"
					/>
					<path
						d="M40.5 36.0749L31 43.5L30 55.5L49 59.9453L52.5 63L79.5 67.5L89.2671 72.5825L98.2143 76.7949L102.344 72.5825L109.914 64.8598L115.42 59.9453L124.368 50.1163L131.25 45.9039L136 40L128.497 36.0749L109.914 33.5L105 29.7563H94.0848L83.0729 28.3521L81 21.5L70.5 20L52.5 28.3521L47.9725 33.5L40.5 36.0749Z"
						fill="#AC7D43"
					/>
					<path
						d="M20.4457 84.1094L16.195 80.5775L7 77.0456L2.73438 73.5137L4.15128 64L16.195 54.4414H27.5302L33.1978 57.267L45.2415 60.5L51 62L70 65.5L80.5 67L84.9148 72.1009L91 73.5137L93 78.5L80.5 90.4668L71.5 98L60.119 93L40 90.4668L35.3232 87L24.6964 84.1094H20.4457Z"
						fill="#FDC272"
					/>
					<path
						d="M9.11044 47.3776L14 51L19.0288 52.3223L27.5302 50L33.1978 41.0202L45.2415 33.9564L55.1598 29.0117L60.119 20.5352L55.1598 17.0033L35.3232 16L22 24.5L16.195 27.599L5.56818 38.9011L4.15128 43.1393L9.11044 47.3776Z"
						fill="#FDC272"
					/>
					<path
						d="M80.5 23.3607L65.7866 20.5352L67.5 14.5L75.7049 8.52669L90 5.5L108.294 11L120.337 13L136.5 17.0033L145.133 23.3607L147.967 29.0117L140.174 37L133.09 38.9011L130.964 36L108.294 33.9564L105 30.5L83.5 26.5L80.5 23.3607Z"
						fill="#FDC272"
					/>
					<path
						d="M113.961 59.3861L101.918 72.1009L105 80.5775L110 83L116.087 85.5222L121.5 90.4668H130.964L135.5 87L140.174 77.0456L147.967 73.5137L154 65.5L160 60.5L155.5 52.3223L143 45.5L133.09 43.1393L128.13 44.5521L113.961 59.3861Z"
						fill="#FDC272"
					/>
					<path
						d="M57.7786 24.443V31.5638H57.0652V61.4711H60.6318H62.7718V24.443H57.7786Z"
						fill="#100317"
					/>
					<path
						d="M151.223 44.3812H138.383V50.0778H151.223V44.3812Z"
						fill="#100317"
					/>
					<path
						d="M151.223 57.1986H157.643V50.7899H151.223V57.1986Z"
						fill="#100317"
					/>
					<path
						d="M157.643 62.8952H164.063V57.1986H157.643V62.8952Z"
						fill="#100317"
					/>
					<path
						d="M151.223 69.3039H157.643V62.8952H151.223V69.3039Z"
						fill="#100317"
					/>
					<path
						d="M144.803 75.0005V75.7126H151.223V69.3039H144.803V75.0005Z"
						fill="#100317"
					/>
					<path
						d="M137.67 82.1213H144.803V75.7126V75.0005H137.67V82.1213Z"
						fill="#100317"
					/>
					<path
						d="M131.963 94.2266V88.53H119.837V94.2266H131.963Z"
						fill="#100317"
					/>
					<path
						d="M119.837 81.4092H106.997V88.53H119.837V81.4092Z"
						fill="#100317"
					/>
					<path
						d="M145.516 31.5638H138.383V37.2604H145.516V31.5638Z"
						fill="#100317"
					/>
					<path
						d="M151.223 18.7464H138.383V25.1551H145.516V31.5638H151.223V18.7464Z"
						fill="#100317"
					/>
					<path
						d="M119.837 13.0498V18.7464H138.383V13.0498H119.837Z"
						fill="#100317"
					/>
					<path
						d="M94.1576 6.64112V13.0498H119.837V6.64112H94.1576Z"
						fill="#100317"
					/>
					<path
						d="M82.0313 6.64112H94.1576V0.232422H82.0313V6.64112Z"
						fill="#100317"
					/>
					<path
						d="M69.9049 13.0498H82.0313V6.64112H69.9049V13.0498Z"
						fill="#100317"
					/>
					<path
						d="M62.7718 13.0498V18.7464H69.9049V13.0498H62.7718Z"
						fill="#100317"
					/>
					<path
						d="M106.284 74.2884H100.577V81.4092H106.997V68.5918H106.284V74.2884Z"
						fill="#100317"
					/>
					<path
						d="M94.871 82.1213V74.2884H88.4511V82.1213H94.871Z"
						fill="#100317"
					/>
					<path
						d="M82.0313 88.53H88.4511V82.1213H82.0313V88.53Z"
						fill="#100317"
					/>
					<path
						d="M75.6114 94.2266H82.0313V88.53H75.6114V94.2266Z"
						fill="#100317"
					/>
					<path
						d="M75.6114 94.2266H62.7718V100.635H75.6114V94.2266Z"
						fill="#100317"
					/>
					<path
						d="M62.7718 88.53H37.8057V94.2266H62.7718V88.53Z"
						fill="#100317"
					/>
					<path
						d="M25.6794 82.1213V88.53H37.8057V82.1213H25.6794Z"
						fill="#100317"
					/>
					<path
						d="M19.9728 88.53V82.1213H18.5462V88.53H19.9728Z"
						fill="#100317"
					/>
					<path
						d="M18.5462 75.7126H5.70652V82.1213H18.5462V75.7126Z"
						fill="#100317"
					/>
					<path
						d="M5.70652 62.8952H0V75.7126H5.70652V62.8952Z"
						fill="#100317"
					/>
					<path
						d="M12.8397 57.1986H5.70652V62.8952H12.8397V57.1986Z"
						fill="#100317"
					/>
					<path
						d="M12.8397 50.0778V57.1986H19.9728V50.0778H12.8397Z"
						fill="#100317"
					/>
					<path
						d="M12.8397 44.3812H6.41984V50.0778H12.8397V44.3812Z"
						fill="#100317"
					/>
					<path
						d="M6.41984 37.9725H0V44.3812H6.41984V37.9725Z"
						fill="#100317"
					/>
					<path
						d="M12.8397 31.5638H6.41984V37.9725H12.8397V31.5638Z"
						fill="#100317"
					/>
					<path
						d="M19.2595 25.8672H12.8397V31.5638H19.2595V25.8672Z"
						fill="#100317"
					/>
					<path
						d="M31.3859 25.8672V18.7464H19.2595V25.8672H31.3859Z"
						fill="#100317"
					/>
					<path
						d="M57.0652 13.0498H31.3859V18.7464H57.0652V13.0498Z"
						fill="#100317"
					/>
					<path
						fill-rule="evenodd"
						clip-rule="evenodd"
						d="M19.9728 50.0778V49.3657H26.3927V42.9571H32.0992V55.7744H50.6454V61.4711H32.0992V57.1986H25.6794H19.9728V50.0778ZM19.9728 82.1213V88.53V117.013H32.0992V111.316H25.6794V88.53V82.1213H19.9728ZM82.0313 68.5918H50.6454V61.4711H57.0652H60.6318H62.7718H82.0313V68.5918ZM94.871 74.2884H88.4511H82.0313V68.5918H94.871V74.2884ZM100.577 74.2884H94.871V82.1213V129.83H82.0313V124.134H50.6454V118.437H32.0992V124.134H50.6454V129.83H82.0313V136.951H100.577V129.83H106.284V124.134H113.417V118.437H106.284V124.134H100.577V81.4092V74.2884ZM100.577 74.2884V68.5918H106.284V74.2884H100.577ZM39.2324 37.2604V42.9571H32.0992V37.2604H39.2324ZM50.6454 31.5638V37.2604H39.2324V31.5638H50.6454ZM57.7786 24.443V31.5638H57.0652H50.6454V24.443H57.7786ZM57.7786 24.443V18.7464H62.7718H69.9049H82.0313V24.443H62.7718H57.7786ZM113.417 117.013H119.124V111.316H125.544V104.908H131.963V98.4991H137.67V82.1213H132.677V88.53H131.963V94.2266V98.4991H125.544V104.908H119.124V111.316H113.417V117.013ZM131.963 44.3812V49.3657H125.544V42.9571H131.963V37.2604H137.67V44.3812H132.677H131.963ZM119.124 55.7744V49.3657H125.544V55.7744H119.124ZM119.124 55.7744H113.417V61.4711H119.124V55.7744ZM131.963 31.5638V37.2604H106.284V31.5638H131.963ZM106.284 31.5638H100.577H97.7242H94.871H82.0313V25.1551H106.284V31.5638ZM106.997 67.8798H112.704V62.1831H106.997V67.8798Z"
						fill="#100317"
					/>
				</svg>