<svg width="266" height="240" viewBox="0 0 266 240" fill="none" xmlns="http://www.w3.org/2000/svg">
<path d="M118.862 16.6521V0H136.088V16.6521H202.697V32.7299H219.923V117.713H17.2271V16.6521H118.862Z" fill="#64F6FF"/>
<path d="M203.001 34H47.0007V116H203.001V34Z" fill="#18A2AB"/>
<path d="M47.0007 16H19.0007V116H47.0007V16Z" fill="#1AABB5"/>
<path fill-rule="evenodd" clip-rule="evenodd" d="M0.000732422 117.713H19.227V16.6521H118.862V0H19.227V16.6521H0.000732422V117.713ZM219.349 117.713H236.001V16.6521H219.349V0H136.088V16.6521H202.122V32.1557H219.349V117.713Z" fill="var(--main-bg-color)"/>
<path d="M38.0007 13V111H50.0007V13H38.0007Z" fill="var(--main-bg-color)"/>
<mask id="mask0" mask-type="alpha" maskUnits="userSpaceOnUse" x="31" y="118" width="217" height="103">
<rect width="217" height="102" transform="matrix(-1 0 0 1 248 118.264)" fill="#C4C4C4"/>
</mask>
<g mask="url(#mask0)">
<rect width="280.442" height="171.316" transform="matrix(-1 0 0 1 255.44 65.234)" fill="#64F6FF"/>
<path fill-rule="evenodd" clip-rule="evenodd" d="M229.625 223.643V148.546H196.183H191.49V181.988H121.086V148.546H66.5228H54.7889V223.643H-10.3346V71.6885H250.159V115.104V228.924H229.625V223.643ZM229.625 93.983V115.104V119.798H66.5228V93.983H229.625Z" fill="#1AABB5"/>
</g>
<path fill-rule="evenodd" clip-rule="evenodd" d="M19 111V239.487H266V111H247.812H82.3634H64.1758H37.7743H19ZM193.836 129.774H247.812V220.126H82.3634V129.774H139.273V164.976H193.836V129.774ZM37.7743 129.774H64.1758V220.126H37.7743V129.774ZM157.461 129.774H175.062V146.789H157.461V129.774Z" fill="var(--main-bg-color)"/>
<mask id="mask1" mask-type="alpha" maskUnits="userSpaceOnUse" x="31" y="0" width="227" height="111">
<rect x="31.0007" width="226" height="111" fill="#C4C4C4"/>
</mask>
<g mask="url(#mask1)">
<mask id="mask2" mask-type="alpha" maskUnits="userSpaceOnUse" x="168" y="75" width="82" height="78">
<path d="M171.346 122.261L178.572 89.9563L180.446 81.581L187.625 83.1869L189.097 76.6063L238.822 87.7294L242.639 88.5827L241.167 95.1637L248.046 96.7026L238.947 137.383L237.073 145.758L230.194 144.219L228.722 150.8L178.697 139.61L175.179 138.823L176.651 132.242L169.473 130.636L171.346 122.261Z" fill="#fff"/>
</mask>
<g mask="url(#mask2)">
<rect x="180.399" y="67.7507" width="82.7577" height="74.7884" transform="rotate(12.6089 180.399 67.7507)" fill="#1DA1F2"/>
<path d="M186.05 91.6286L182.37 108.08L174.892 106.407L181.918 75L213.325 82.0255L212.991 83.5211L211.853 88.6061L207.067 87.5356L199.29 85.7959L196.897 85.2606L195.024 93.6359L186.05 91.6286Z" fill="#4FB9FA"/>
<path d="M193.643 101.056L190.685 100.394L191.354 97.4058L200.541 99.4607L199.858 102.512L206.025 103.891L205.356 106.88L211.522 108.259L212.873 102.219L216.02 102.923L216.73 99.7477L225.98 101.817L225.269 104.992L227.723 105.541L228.434 102.366L232.146 103.196L231.436 106.372L228.415 105.696L226.382 114.787L223.236 114.083L221.188 123.236L218.168 122.56L217.486 125.611L214.276 124.894L213.58 128.007L207.414 126.627L206.759 129.554L191.469 126.134L192.123 123.207L195.081 123.869L195.777 120.755L198.86 121.445L199.543 118.394L193.502 117.043L194.185 113.992L197.142 114.653L197.839 111.54L191.609 110.147L192.278 107.158L195.55 107.89L196.232 104.839L192.96 104.107L193.643 101.056Z" fill="white"/>
</g>
<mask id="mask3" mask-type="alpha" maskUnits="userSpaceOnUse" x="130" y="62" width="70" height="64">
<path d="M130.001 110.429V77.326V68.7437H137.357V62.0005H188.311L192.222 62V68.7437H199.272V110.429V119.011H192.222V125.755H140.961H137.357V119.011H130.001V110.429Z" fill="#fff"/>
</mask>
<g mask="url(#mask3)">
<rect x="126.936" y="55.2572" width="82.7577" height="74.7884" fill="#23599D"/>
<path d="M137.663 77.3255V94.1835H130.001V62H162.184V63.5325V68.7432H157.28H149.311H146.859V77.3255H137.663Z" fill="#4E84C1"/>
<path d="M161.418 99.0087V112.616V113.494H169.418V112.616V99.0087H174.751V91.1075H169.418V84.9622H174.751V77.939H164.085V80.5727H161.418V91.1075H156.974V99.0087H161.418Z" fill="white"/>
</g>
<mask id="mask4" mask-type="alpha" maskUnits="userSpaceOnUse" x="90" y="75" width="70" height="64">
<path d="M90.0007 123.429V90.326V81.7437H97.357V75.0005H148.311L152.222 75V81.7437H159.272V123.429V132.011H152.222V138.755H100.961H97.357V132.011H90.0007V123.429Z" fill="#fff"/>
</mask>
<g mask="url(#mask4)">
<rect x="86.9355" y="68.2572" width="82.7577" height="74.7884" fill="#333333"/>
<path d="M97.6635 90.3255V107.184H90.0007V75H122.184V76.5325V81.7432H117.28H109.311H106.859V90.3255H97.6635Z" fill="#5C5C5C"/>
<path d="M121.364 123.848V131.398H132.249V120.224H130.46V118.261H128.522V116.449H135.828V114.637H137.767V112.674H139.556V110.862H141.494V99.6875H139.705V97.8755H137.767V96.0635H139.705V90.3254H134.188V92.1375H132.399V94.1005H130.46V92.1375H121.215V94.1005H119.426V92.1375H117.487V90.3254H112.119V96.0635H113.909V97.8755H112.119V99.6875H110.181V110.862H112.119V112.674H113.909V114.637H115.698V116.449H123.154V118.412H121.364V120.224H119.426V122.036H115.698V120.224H113.909V118.261H112.119V116.449H108.391V118.412H110.181V120.224H112.119V122.036H113.909V123.848H121.364Z" fill="white"/>
</g>
<mask id="mask5" mask-type="alpha" maskUnits="userSpaceOnUse" x="39" y="62" width="87" height="83">
<path d="M54.7705 130.346L43.9913 99.0472L41.1966 90.9327L48.152 88.5373L45.9562 82.1616L94.1335 65.5695L97.8311 64.2956L100.027 70.6717L106.693 68.3762L120.266 107.79L123.061 115.904L116.395 118.2L118.591 124.575L70.1241 141.267L66.7161 142.441L64.5204 136.065L57.5651 138.461L54.7705 130.346Z" fill="#fff"/>
</mask>
<g mask="url(#mask5)">
<rect x="33.907" y="79.1793" width="82.7577" height="74.7884" transform="rotate(-19.0035 33.907 79.1793)" fill="#FA0F17"/>
<path d="M51.2362 96.5516L56.7256 112.491L49.4805 114.986L39.0007 84.5565L69.4302 74.0767L69.9293 75.5258L71.626 80.4524L66.9891 82.0494L59.4542 84.6444L57.1358 85.4428L59.9304 93.5573L51.2362 96.5516Z" fill="#fff"/>
<path d="M70.2022 93.262L67.8838 94.0605L67.594 94.1603L76.7763 120.822L79.3845 119.924L78.5861 117.606L83.5127 115.909L82.6145 113.301L87.2514 111.704L86.4529 109.385L91.3796 107.689L90.5811 105.37L95.5078 103.673L94.6095 101.065L96.928 100.267L96.1295 97.9483L93.8111 98.7467L92.9128 96.1385L92.623 96.2383L87.9861 97.8352L87.1877 95.5168L82.261 97.2135L81.4625 94.895L76.8256 96.492L76.0272 94.1735L71.1005 95.8703L70.2022 93.262Z" fill="#fff"/>
</g>
</g>
</svg>
