<svg width="165" height="137" viewBox="0 0 165 137" fill="none">
<rect width="164" height="137" fill="transparent"/>
<path d="M31.5743 54.9199H24.6094V112.169L31.5743 114.239L34.3603 119.067L48.9866 121.136L53.1655 125.964H78.9358L85.2042 131.482H97.0445L98.4375 99.7538V90.7871L97.0445 76.992L93.5621 73.5432L85.2042 72.1637L78.9358 67.3355L54.5585 64.5765L48.9866 61.1277L35.7532 59.7482L31.5743 54.9199Z" fill="#FDC272"/>
<path d="M109.036 123.449L100.33 129.014H96.7031V79.627L107.585 69.1932L125.721 51.108L132.25 49.7168V99.7991L127.897 103.973L122.094 109.537L119.192 111.624L114.114 118.58L109.036 123.449Z" fill="#D59E5D"/>
<path d="M43.843 36.0749L31.4546 45.9039L30.0781 56.4349L47.9725 60.6473L56.2314 64.8598L77.567 68.3701L89.2671 72.5825L98.2143 76.7949L102.344 72.5825L109.914 64.8598L115.42 59.9453L124.368 50.1163L131.25 45.9039V41.6915L128.497 36.0749L107.161 34.6708L103.72 32.5646L94.0848 29.7563L83.0729 28.3521L79.6317 24.8418H59.6726L54.1667 29.7563L49.349 36.0749H43.843Z" fill="#AC7D43"/>
<path d="M20.4457 84.1094L16.195 80.5775L5.56818 77.0456L2.73438 73.5137L4.15128 63.6244L16.195 54.4414H27.5302L33.1978 57.267L45.2415 60.5L51 62L70 65.5L80.5 67L84.9148 72.1009L91 73.5137L93 78.5L80.5 90.4668L71.5 98L60.119 93L40 90.4668L35.3232 87L24.6964 84.1094H20.4457Z" fill="#FDC272"/>
<path d="M9.11044 47.3776L14.0696 52.3223H19.0288L26.1133 47.3776L33.1978 41.0202L45.2415 33.9564L55.1598 29.0117L60.119 20.5352L52.326 17.0033H35.3232L20.4457 23.3607L16.195 27.599L4.15128 38.9011V43.1393L9.11044 47.3776Z" fill="#FDC272"/>
<path d="M78.5387 23.3607L65.7866 20.5352V14.8841L75.7049 8.52669L87.0402 5.70117L116.087 12.765L135.215 18.416L145.133 23.3607L147.967 29.0117L140.174 33.9564L133.09 41.0202L128.13 36.0755L108.294 33.9564L103.335 31.1309L84.9148 29.0117L78.5387 23.3607Z" fill="#FDC272"/>
<path d="M113.961 59.3861L101.918 72.1009L103.335 80.5775L108.294 84.1094L116.087 85.5222L120.337 90.4668H130.964L133.09 85.5222L140.174 77.0456L147.967 72.1009L152.926 65.0371L158.594 61.5052L152.926 52.3223L140.174 47.3776L133.09 43.1393L128.13 44.5521L113.961 59.3861Z" fill="#FDC272"/>
<path d="M57.7786 24.443V31.5638H57.0652V61.4711H60.6318H62.7718V24.443H57.7786Z" fill="#100317"/>
<path d="M151.223 44.3812H138.383V50.0778H151.223V44.3812Z" fill="#100317"/>
<path d="M151.223 57.1986H157.643V50.7899H151.223V57.1986Z" fill="#100317"/>
<path d="M157.643 62.8952H164.063V57.1986H157.643V62.8952Z" fill="#100317"/>
<path d="M151.223 69.3039H157.643V62.8952H151.223V69.3039Z" fill="#100317"/>
<path d="M144.803 75.0005V75.7126H151.223V69.3039H144.803V75.0005Z" fill="#100317"/>
<path d="M137.67 82.1213H144.803V75.7126V75.0005H137.67V82.1213Z" fill="#100317"/>
<path d="M131.963 94.2266V88.53H119.837V94.2266H131.963Z" fill="#100317"/>
<path d="M119.837 81.4092H106.997V88.53H119.837V81.4092Z" fill="#100317"/>
<path d="M145.516 31.5638H138.383V37.2604H145.516V31.5638Z" fill="#100317"/>
<path d="M151.223 18.7464H138.383V25.1551H145.516V31.5638H151.223V18.7464Z" fill="#100317"/>
<path d="M119.837 13.0498V18.7464H138.383V13.0498H119.837Z" fill="#100317"/>
<path d="M94.1576 6.64112V13.0498H119.837V6.64112H94.1576Z" fill="#100317"/>
<path d="M82.0313 6.64112H94.1576V0.232422H82.0313V6.64112Z" fill="#100317"/>
<path d="M69.9049 13.0498H82.0313V6.64112H69.9049V13.0498Z" fill="#100317"/>
<path d="M62.7718 13.0498V18.7464H69.9049V13.0498H62.7718Z" fill="#100317"/>
<path d="M106.284 74.2884H100.577V81.4092H106.997V68.5918H106.284V74.2884Z" fill="#100317"/>
<path d="M94.871 82.1213V74.2884H88.4511V82.1213H94.871Z" fill="#100317"/>
<path d="M82.0313 88.53H88.4511V82.1213H82.0313V88.53Z" fill="#100317"/>
<path d="M75.6114 94.2266H82.0313V88.53H75.6114V94.2266Z" fill="#100317"/>
<path d="M75.6114 94.2266H62.7718V100.635H75.6114V94.2266Z" fill="#100317"/>
<path d="M62.7718 88.53H37.8057V94.2266H62.7718V88.53Z" fill="#100317"/>
<path d="M25.6794 82.1213V88.53H37.8057V82.1213H25.6794Z" fill="#100317"/>
<path d="M19.9728 88.53V82.1213H18.5462V88.53H19.9728Z" fill="#100317"/>
<path d="M18.5462 75.7126H5.70652V82.1213H18.5462V75.7126Z" fill="#100317"/>
<path d="M5.70652 62.8952H0V75.7126H5.70652V62.8952Z" fill="#100317"/>
<path d="M12.8397 57.1986H5.70652V62.8952H12.8397V57.1986Z" fill="#100317"/>
<path d="M12.8397 50.0778V57.1986H19.9728V50.0778H12.8397Z" fill="#100317"/>
<path d="M12.8397 44.3812H6.41984V50.0778H12.8397V44.3812Z" fill="#100317"/>
<path d="M6.41984 37.9725H0V44.3812H6.41984V37.9725Z" fill="#100317"/>
<path d="M12.8397 31.5638H6.41984V37.9725H12.8397V31.5638Z" fill="#100317"/>
<path d="M19.2595 25.8672H12.8397V31.5638H19.2595V25.8672Z" fill="#100317"/>
<path d="M31.3859 25.8672V18.7464H19.2595V25.8672H31.3859Z" fill="#100317"/>
<path d="M57.0652 13.0498H31.3859V18.7464H57.0652V13.0498Z" fill="#100317"/>
<path fill-rule="evenodd" clip-rule="evenodd" d="M19.9728 50.0778V49.3657H26.3927V42.9571H32.0992V55.7744H50.6454V61.4711H32.0992V57.1986H25.6794H19.9728V50.0778ZM19.9728 82.1213V88.53V117.013H32.0992V111.316H25.6794V88.53V82.1213H19.9728ZM82.0313 68.5918H50.6454V61.4711H57.0652H60.6318H62.7718H82.0313V68.5918ZM94.871 74.2884H88.4511H82.0313V68.5918H94.871V74.2884ZM100.577 74.2884H94.871V82.1213V129.83H82.0313V124.134H50.6454V118.437H32.0992V124.134H50.6454V129.83H82.0313V136.951H100.577V129.83H106.284V124.134H113.417V118.437H106.284V124.134H100.577V81.4092V74.2884ZM100.577 74.2884V68.5918H106.284V74.2884H100.577ZM39.2324 37.2604V42.9571H32.0992V37.2604H39.2324ZM50.6454 31.5638V37.2604H39.2324V31.5638H50.6454ZM57.7786 24.443V31.5638H57.0652H50.6454V24.443H57.7786ZM57.7786 24.443V18.7464H62.7718H69.9049H82.0313V24.443H62.7718H57.7786ZM113.417 117.013H119.124V111.316H125.544V104.908H131.963V98.4991H137.67V82.1213H132.677V88.53H131.963V94.2266V98.4991H125.544V104.908H119.124V111.316H113.417V117.013ZM131.963 44.3812V49.3657H125.544V42.9571H131.963V37.2604H137.67V44.3812H132.677H131.963ZM119.124 55.7744V49.3657H125.544V55.7744H119.124ZM119.124 55.7744H113.417V61.4711H119.124V55.7744ZM131.963 31.5638V37.2604H106.284V31.5638H131.963ZM106.284 31.5638H100.577H97.7242H94.871H82.0313V25.1551H106.284V31.5638ZM106.997 67.8798H112.704V62.1831H106.997V67.8798Z" fill="#100317"/>
<mask id="mask0" mask-type="alpha" maskUnits="userSpaceOnUse" x="19" y="14" width="117" height="61">
<path d="M19.9185 14.5L19.9185 49.9185H31.3006L32.012 56.321H50.508V62.012H81.8088V69.1258H94.6137V74.8169H101.016L135.163 42.8047L135.163 14.5H19.9185Z" fill="#C4C4C4"/>
</mask>
<g mask="url(#mask0)">
<mask id="mask1" mask-type="alpha" maskUnits="userSpaceOnUse" x="88" y="20" width="52" height="50">
<path d="M98.3971 28.3795L99.3559 28.756L101.001 24.5662L102.08 24.9898L102.606 23.6491L103.565 24.0256L104.157 22.5173L107.154 23.6938L107.68 22.3531L133.57 32.5186L133.043 33.8593L136.04 35.0359L135.447 36.5442L136.406 36.9207L135.88 38.2614L136.958 38.6849L135.313 42.8747L136.272 43.2512L129.165 61.3508L128.207 60.9743L126.561 65.164L125.603 64.7875L125.076 66.1283L123.997 65.7047L123.405 67.213L121.487 66.46L120.961 67.8007L93.9929 57.2117L94.5194 55.871L91.5229 54.6944L92.1151 53.1861L91.1563 52.8096L91.6827 51.4689L90.604 51.0453L92.2491 46.8556L91.2902 46.4791L98.3971 28.3795Z" fill="#fff"/>
</mask>
<g mask="url(#mask1)">
<path d="M98.5673 28.4459L99.9081 28.9723L101.553 24.7826L103.061 25.3748L103.588 24.0341L104.929 24.5605L105.521 23.0522L109.711 24.6973L110.237 23.3566L146.436 37.5703L145.91 38.911L150.1 40.5561L149.507 42.0644L150.848 42.5908L150.322 43.9315L151.83 44.5238L150.185 48.7135L151.526 49.2399L144.419 67.3396L143.078 66.8131L141.433 71.0029L140.092 70.4764L139.566 71.8172L138.057 71.2249L137.465 72.7332L134.784 71.6804L134.257 73.0211L96.5498 58.2152L97.0762 56.8745L92.8865 55.2294L93.4787 53.7211L92.138 53.1946L92.6644 51.8539L91.1561 51.2617L92.8012 47.0719L91.4605 46.5455L98.5673 28.4459Z" fill="#F8D41C"/>
<path d="M96.6149 37.3517L95.2742 36.8253L94.4363 36.4963L101.346 18.8994L118.943 25.8088L118.614 26.6468L118.087 27.9875L113.897 26.3424L113.305 27.8507L110.456 26.732L109.93 28.0727L107.248 27.0199L106.722 28.3606L105.214 27.7684L104.621 29.2767L103.281 28.7502L102.228 31.4317L100.887 30.9052L99.7683 33.7542L98.26 33.162L96.6149 37.3517Z" fill="#FFF500"/>
</g>
<mask id="mask2" mask-type="alpha" maskUnits="userSpaceOnUse" x="74" y="15" width="47" height="44">
<path d="M74 25.3677H75.1864V20.1838H76.521V18.525H77.7074V16.6588H81.4148V15H113.447V16.6588H117.154V18.525H118.341V20.1838H119.675V25.3677H120.862V47.7618H119.675V52.9456H118.489V54.6045H117.154V56.4706H114.782V58.1295H81.4148V56.4706H77.7074V54.6045H76.521V52.9456H75.1864V47.7618H74V25.3677Z" fill="#fff"/>
</mask>
<g mask="url(#mask2)">
<path d="M74.2075 25.3677H75.8663V20.1838H77.7325V18.525H79.3913V16.6588H84.5752V15H129.363V16.6588H134.547V18.525H136.206V20.1838H138.072V25.3677H139.731V47.7618H138.072V52.9456H136.413V54.6045H134.547V56.4706H131.23V58.1295H84.5752V56.4706H79.3913V54.6045H77.7325V52.9456H75.8663V47.7618H74.2075V25.3677Z" fill="black"/>
<path d="M75.8661 35.735H74.2073H73.1705V13.9629H94.9426V14.9997V16.6585H89.7588V18.5247H86.2338V20.1835H82.9161V21.8423H81.05V23.7085H79.3911V27.0261H77.7323V30.5511H75.8661V35.735Z" fill="#5C5C5C"/>
<path d="M97.2911 49.29V54.3976H104.655V46.8384H103.444V45.5104H102.133V44.2846H107.076V43.0588H108.387V41.7308H109.598V40.505H110.909V32.9457H109.699V31.7199H108.387V30.4941H109.699V26.6123H105.966V27.8381H104.756V29.1661H103.444V27.8381H97.1902V29.1661H95.9797V27.8381H94.6684V26.6123H91.0369V30.4941H92.2474V31.7199H91.0369V32.9457H89.7255V40.505H91.0369V41.7308H92.2474V43.0588H93.4579V44.2846H98.5016V45.6126H97.2911V46.8384H95.9797V48.0642H93.4579V46.8384H92.2474V45.5104H91.0369V44.2846H88.515V45.6126H89.7255V46.8384H91.0369V48.0642H92.2474V49.29H97.2911Z" fill="white"/>
</g>
<mask id="mask3" mask-type="alpha" maskUnits="userSpaceOnUse" x="31" y="14" width="50" height="48">
<path d="M34.4378 34.7614L35.3955 34.4638L34.0953 30.2789L35.1728 29.9442L34.7568 28.605L35.7145 28.3074L35.2464 26.8009L38.2394 25.871L37.8234 24.5318L63.6828 16.4977L64.0988 17.8368L67.0918 16.907L67.5599 18.4135L68.5176 18.116L68.9337 19.4551L70.0112 19.1204L71.3113 23.3052L72.2691 23.0077L77.8859 41.0864L76.9282 41.3839L78.2283 45.5688L77.2706 45.8664L77.6866 47.2055L76.6092 47.5403L77.0772 49.0469L75.1617 49.642L75.5778 50.9811L48.6409 59.3501L48.2249 58.0109L45.2319 58.9408L44.7638 57.4342L43.8061 57.7318L43.39 56.3926L42.3125 56.7274L41.0123 52.5425L40.0546 52.8401L34.4378 34.7614Z" fill="#fff"/>
</mask>
<g mask="url(#mask3)">
<path d="M34.6027 34.7106L35.9419 34.2945L34.6417 30.1096L36.1482 29.6416L35.7322 28.3024L37.0713 27.8864L36.6033 26.3798L40.7881 25.0796L40.3721 23.7404L76.5295 12.5068L76.9455 13.846L81.1304 12.5458L81.5985 14.0524L82.9376 13.6363L83.3537 14.9755L84.8603 14.5074L86.1604 18.6923L87.4996 18.2762L93.1164 36.3549L91.7772 36.771L93.0774 40.9559L91.7383 41.3719L92.1543 42.7111L90.6478 43.1791L91.1158 44.6857L88.4375 45.5178L88.8536 46.857L51.1896 58.5587L50.7736 57.2195L46.5887 58.5197L46.1206 57.0131L44.7815 57.4292L44.3654 56.09L42.8588 56.5581L41.5587 52.3732L40.2195 52.7893L34.6027 34.7106Z" fill="#23599D"/>
<path d="M38.5448 42.6651L37.2056 43.0811L36.3686 43.3412L30.9078 25.7646L48.4843 20.3039L48.7444 21.1408L49.1604 22.48L44.9756 23.7802L45.4436 25.2867L42.5979 26.1709L43.014 27.51L40.3356 28.3422L40.7517 29.6813L39.2451 30.1494L39.7132 31.6559L38.374 32.072L39.2062 34.7503L37.867 35.1664L38.7511 38.0121L37.2446 38.4802L38.5448 42.6651Z" fill="#4E84C1"/>
<path d="M55.275 41.2733L57.5838 48.7048L57.7328 49.1843L62.1018 47.8269L61.9529 47.3474L59.644 39.9159L62.5567 39.011L61.216 34.6959L58.3033 35.6008L57.2606 32.2446L60.1733 31.3397L58.9816 27.5041L53.1563 29.3139L53.6032 30.7523L52.1468 31.2048L53.9343 36.9582L51.5071 37.7123L52.8477 42.0274L55.275 41.2733Z" fill="white"/>
</g>
<mask id="mask4" mask-type="alpha" maskUnits="userSpaceOnUse" x="16" y="26" width="71" height="56">
<path d="M24.4507 36.204L25.948 36.6052L27.2018 31.9261L28.8863 32.3774L29.2875 30.8801L30.7848 31.2813L31.2362 29.5968L35.9154 30.8506L36.3166 29.3533L76.7445 40.1859L76.3433 41.6832L81.0225 42.937L80.5711 44.6215L82.0685 45.0227L81.6673 46.52L83.3518 46.9714L82.098 51.6506L83.5953 52.0518L78.179 72.2658L76.6817 71.8646L75.4279 76.5437L73.9305 76.1425L73.5293 77.6398L71.8448 77.1885L71.3935 78.873L68.3988 78.0706L67.9976 79.5679L25.8851 68.2839L26.2864 66.7866L21.6072 65.5328L22.0586 63.8483L20.5612 63.4471L20.9624 61.9497L19.2779 61.4984L20.5317 56.8192L19.0344 56.418L24.4507 36.204Z" fill="#fff"/>
</mask>
<g mask="url(#mask4)">
<path d="M24.4507 36.204L25.948 36.6052L27.2018 31.9261L28.8863 32.3774L29.2875 30.8801L30.7848 31.2813L31.2362 29.5968L35.9154 30.8506L36.3166 29.3533L76.7445 40.1859L76.3433 41.6832L81.0225 42.937L80.5711 44.6215L82.0685 45.0227L81.6673 46.52L83.3518 46.9714L82.098 51.6506L83.5953 52.0518L78.179 72.2658L76.6817 71.8646L75.4279 76.5437L73.9305 76.1425L73.5293 77.6398L71.8448 77.1885L71.3935 78.873L68.3988 78.0706L67.9976 79.5679L25.8851 68.2839L26.2864 66.7866L21.6072 65.5328L22.0586 63.8483L20.5612 63.4471L20.9624 61.9497L19.2779 61.4984L20.5317 56.8192L19.0344 56.418L24.4507 36.204Z" fill="#FA0F17"/>
<path d="M23.4409 45.9627L21.9435 45.5614L21.0077 45.3107L26.2736 25.6582L45.926 30.9241L45.6753 31.8599L45.2741 33.3572L40.5949 32.1035L40.1436 33.788L36.9617 32.9354L36.5605 34.4327L33.5659 33.6303L33.1646 35.1276L31.4801 34.6763L31.0288 36.3608L29.5315 35.9596L28.729 38.9542L27.2317 38.553L26.3791 41.7348L24.6946 41.2835L23.4409 45.9627Z" fill="#FF4A4A"/>
<path d="M48.9424 44.3723L47.4451 43.971L47.2579 43.9209L42.644 61.1402L44.3285 61.5916L44.7297 60.0942L47.9116 60.9468L48.3629 59.2623L51.3576 60.0647L51.7588 58.5674L54.9406 59.42L55.3418 57.9226L58.5237 58.7752L58.975 57.0907L60.4724 57.4919L60.8736 55.9946L59.3762 55.5934L59.8276 53.9089L59.6404 53.8587L56.6458 53.0563L57.047 51.559L53.8651 50.7064L54.2664 49.2091L51.2717 48.4067L51.6729 46.9093L48.4911 46.0568L48.9424 44.3723Z" fill="white"/>
</g>
<mask id="mask5" mask-type="alpha" maskUnits="userSpaceOnUse" x="75" y="36" width="60" height="57">
<path d="M76.9133 56.1542L78.2299 55.9352L77.2733 50.1824L78.7544 49.936L78.4483 48.0951L79.7649 47.8762L79.4205 45.8052L83.5349 45.121L83.2288 43.2801L118.777 37.3686L119.083 39.2095L123.198 38.5254L123.542 40.5964L124.859 40.3774L125.165 42.2184L126.646 41.972L127.603 47.7249L128.919 47.506L133.052 72.3583L131.735 72.5773L132.692 78.3301L131.375 78.5491L131.682 80.39L130.2 80.6363L130.545 82.7073L127.912 83.1452L128.218 84.9861L91.1882 91.1438L90.882 89.3029L86.7677 89.9871L86.4233 87.9161L85.1067 88.135L84.8005 86.2941L83.3193 86.5404L82.3627 80.7876L81.0461 81.0065L76.9133 56.1542Z" fill="#fff"/>
</mask>
<g mask="url(#mask5)">
<path d="M77.1435 56.117L78.9845 55.8109L78.0278 50.0581L80.0988 49.7137L79.7927 47.8727L81.6336 47.5666L81.2892 45.4956L87.0421 44.5389L86.7359 42.698L136.441 34.4325L136.747 36.2734L142.5 35.3167L142.844 37.3878L144.685 37.0816L144.991 38.9226L147.062 38.5782L148.019 44.331L149.86 44.0249L153.992 68.8772L152.152 69.1834L153.108 74.9362L151.267 75.2424L151.573 77.0833L149.502 77.4277L149.847 79.4987L146.165 80.111L146.471 81.9519L94.6953 90.5618L94.3892 88.7209L88.6364 89.6775L88.292 87.6065L86.451 87.9126L86.1449 86.0717L84.0739 86.4161L83.1172 80.6633L81.2763 80.9694L77.1435 56.117Z" fill="#56BBD0"/>
<path d="M80.8981 67.3149L79.0572 67.6211L77.9066 67.8124L73.8887 43.6504L98.0507 39.6324L98.242 40.783L98.5481 42.6239L92.7953 43.5806L93.1397 45.6516L89.2277 46.3021L89.5339 48.143L85.852 48.7553L86.1582 50.5962L84.0871 50.9406L84.4315 53.0116L82.5906 53.3178L83.2029 56.9996L81.362 57.3057L82.0125 61.2177L79.9415 61.5621L80.8981 67.3149Z" fill="#98E2F1"/>
<path d="M101.982 73.7417L106.813 72.9383L111.049 72.2338L110.912 71.4117L112.547 71.1398L112.398 70.243L113.216 70.107L113.092 69.3596L113.909 69.2237L113.76 68.3268L114.578 68.1909L114.441 67.3687L115.333 67.2204L115.059 65.5762L115.803 65.4526L115.529 63.8084L116.421 63.6601L115.862 60.2968L116.679 60.1609L116.543 59.3388L117.36 59.2028L117.223 58.3807L118.041 58.2448L117.904 57.4226L118.722 57.2867L118.448 55.6424L117.631 55.7784L117.755 56.5258L116.12 56.7977L115.996 56.0503L116.813 55.9144L116.403 53.448L115.586 53.584L115.71 54.3313L114.892 54.4673L115.029 55.2894L114.211 55.4254L114.361 56.3222L113.543 56.4582L113.394 55.5613L112.576 55.6973L112.44 54.8751L110.805 55.147L110.668 54.3249L106.431 55.0294L106.568 55.8515L105.825 55.9751L105.962 56.7972L105.07 56.9455L105.219 57.8424L104.476 57.966L104.886 60.4324L103.176 60.7166L103.04 59.8945L101.405 60.1664L101.268 59.3443L99.6328 59.6162L99.4961 58.7941L96.9691 59.2143L96.6832 57.4953L95.8657 57.6313L96.0024 58.4534L95.1848 58.5893L95.6074 61.1304L96.425 60.9945L96.5617 61.8166L97.3792 61.6806L97.5159 62.5028L98.3335 62.3668L98.4702 63.1889L96.8351 63.4608L96.6984 62.6387L95.8808 62.7747L96.1667 64.4936L96.9842 64.3577L97.1085 65.1051L97.9261 64.9691L98.0752 65.866L99.7103 65.5941L99.847 66.4162L97.3944 66.824L97.5311 67.6462L98.3486 67.5102L98.4853 68.3323L101.012 67.9121L101.149 68.7342L99.4396 69.0185L99.5763 69.8406L96.3061 70.3844L96.4428 71.2065L97.2604 71.0706L97.4095 71.9674L98.2271 71.8315L98.3638 72.6536L99.9989 72.3817L100.123 73.1291L101.833 72.8448L101.982 73.7417Z" fill="white"/>
</g>
</g>
</svg>
