<svg width="266" height="240" viewBox="0 0 266 240" fill="none" xmlns="http://www.w3.org/2000/svg">
<path d="M118.861 16.6521V0H136.088V16.6521H202.696V32.7299H219.922V117.713H17.2263V16.6521H118.861Z" fill="#64F6FF"/>
<path d="M203 34H47V116H203V34Z" fill="#18A2AB"/>
<path d="M47 16H19V116H47V16Z" fill="#1AABB5"/>
<path fill-rule="evenodd" clip-rule="evenodd" d="M0 117.713H19.2263V16.6521H118.861V0H19.2263V16.6521H0V117.713ZM219.348 117.713H236V16.6521H219.348V0H136.088V16.6521H202.122V32.1557H219.348V117.713Z" fill="#0D0013"/>
<path d="M38 13V111H50V13H38Z" fill="#0D0013"/>
<mask id="mask0" mask-type="alpha" maskUnits="userSpaceOnUse" x="31" y="118" width="217" height="103">
<rect width="217" height="102" transform="matrix(-1 0 0 1 248 118.264)" fill="#C4C4C4"/>
</mask>
<g mask="url(#mask0)">
<rect width="280.442" height="171.316" transform="matrix(-1 0 0 1 255.44 65.234)" fill="#64F6FF"/>
<path fill-rule="evenodd" clip-rule="evenodd" d="M229.625 223.643V148.546H196.183H191.49V181.988H121.086V148.546H66.5228H54.7889V223.643H-10.3346V71.6885H250.159V115.104V228.924H229.625V223.643ZM229.625 93.983V115.104V119.798H66.5228V93.983H229.625Z" fill="#1AABB5"/>
</g>
<path fill-rule="evenodd" clip-rule="evenodd" d="M19 111V239.487H266V111H247.812H82.3634H64.1758H37.7743H19ZM193.836 129.774H247.812V220.126H82.3634V129.774H139.273V164.976H193.836V129.774ZM37.7743 129.774H64.1758V220.126H37.7743V129.774ZM157.461 129.774H175.062V146.789H157.461V129.774Z" fill="#0D0013"/>
</svg>
