<svg width="800" height="800" viewBox="0 0 3493 3582" fill="none" xmlns="http://www.w3.org/2000/svg">
<mask id="mask0" mask-type="alpha" maskUnits="userSpaceOnUse" x="0" y="0" width="3493" height="3582">
<path fill-rule="evenodd" clip-rule="evenodd" d="M1946.28 3516.32V3581.5H2202.42V3496.63H2479.26V3404.35H2669.95V3313.61H2853.49V3220.56H2945.77V3129.3H3037.02V3036.26H3130.84V2852.72H3221.58V2761.98H3312.07V2483.09H3405.12V2202.93H3491.52V1478.75H3404.35V1202.94H3313.61V921.24H3221.58V826.148H3129.3V644.657H3036.26V551.866H2945V461.12H2851.95V368.84H2669.95V276.816H2571.79V183.003H2292.4V93.024H2019.39V1H1295.22V93.024H1020.17V185.304H742.049V277.583H651.303V368.84H461.12V459.586H375.486V553.4H276.049V643.379H184.025V826.915H94.0465V1013.52H1V1367.56H90.979V1460.35H258.412V1386.47H166.388V1184.53H371.141V1367.56H442.204V1276.04H541.641V1184.53H632.387V1086.63H908.97V994.348H1106.57V1202.94H1019.4V1276.04H1106.57V1367.56H1278.34V1202.94H1184.02V1086.63H1292.15V1184.53H1570.26V1276.04H1662.54V1367.56H1755.34V1480.29H1648.48V1386.47H1480.29V1554.93H1662.54V1642.61H1851.19V1734.89H1945.52V2015.05H2132.89V2200.12H2200.88V2015.05H2315.15V2108.6H2409.47V2200.12H2501.5V2313.36H2301.09V2219.8H2227.98V2313.36H2037.8V2393.11H2227.98V2575.37H2315.15V2664.58H2407.17V2873.17H2227.98V3036.26H2407.17V3148.99H2315.66V3332.52H2132.89V3423.27H2038.56V3516.32H1946.28ZM648.491 918.939H442.971V715.975H632.387V623.951H831.005V828.705H648.491V918.939ZM1552.12 1104.52H1644.14V1202.94H1755.34V992.303H1552.12V1104.52ZM2297.25 1294.19H2208.04V1183.76H2316.43V1274.51H2405.89V1385.96H2297.25V1294.19ZM2023.99 1647.97H2129.31V1741.02H2222.36V1940.15H2117.81V1847.61H2023.99V1647.97ZM2591.22 1554.16H2487.44V1756.36H2578.18V1847.1H2681.97V1735.65H2591.22V1554.16ZM2487.44 1920.72H2688.36V2015.05H2777.31V2128.8H2578.18V2038.82H2487.44V1920.72ZM2682.73 2778.59H2487.95V2664.58H2579.46V2582.53H2773.22V2683.5H2682.73V2778.59Z" fill="white"/>
<path d="M554.678 1480.54H629.064V1551.6H554.678V1480.54Z" fill="white"/>
<path d="M652.07 1641.84H815.157V1571.03H652.07V1641.84Z" fill="white"/>
<path d="M652.07 1295.22H908.97V1367.56H652.07V1295.22Z" fill="white"/>
<path d="M928.397 1388.52H1000.48V1460.6H928.397V1388.52Z" fill="white"/>
<path d="M928.397 1105.03H1000.48V1184.53H928.397V1105.03Z" fill="white"/>
<path d="M1111.42 1641.84H1275.02V1477.73H1111.42V1641.84Z" fill="white"/>
<path d="M1019.14 1755.59H1092V1919.7H1019.14V1755.59Z" fill="white"/>
<path d="M1111.42 1939.89H1185.04V2017.86H1111.42V1939.89Z" fill="white"/>
<path d="M1387.49 1919.7H1460.35V1846.85H1387.49V1919.7Z" fill="white"/>
<path d="M1480.03 1662.03H1644.39V1755.08H1735.4V2017.86H1663.31V1829.47H1572.57V1734.89H1479.52L1480.03 1662.03Z" fill="white"/>
<path d="M1854.77 2038.82H1926.86V2200.12H1854.77V2038.82Z" fill="white"/>
<path d="M1946.28 2217.24H2019.14V2294.7H1946.28V2217.24Z" fill="white"/>
<path d="M1573.08 2413.82H1643.88V2485.65H1573.08V2413.82Z" fill="white"/>
<path d="M1481.05 2393.11H1552.37V2313.36H1481.05V2393.11Z" fill="white"/>
<path d="M1852.98 2778.59H1925.58V2943.47H1852.98V2778.59Z" fill="white"/>
<path d="M1760.7 2683.5H1835.86V2762.74H1753.8V2683.5H1760.7Z" fill="white"/>
<path d="M1573.08 2965.19H1644.65V3125.47H1573.08V2965.19Z" fill="white"/>
<path d="M1753.8 3240.24H1835.86V3404.35H1661.78V3332.52H1753.8V3240.24Z" fill="white"/>
<path d="M1852.98 3222.1V3148.99H2109.88V3313.61H1946.28V3222.1H1852.98Z" fill="white"/>
<path d="M2132.89 3125.47V3060.54H2202.42V3125.47H2132.89Z" fill="white"/>
<path d="M1946.28 2595.57H2109.88V2683.5H2202.42V2854.77H2132.89V2762.74H2038.56V2664.58H1946.28V2595.57Z" fill="white"/>
<path d="M1552.37 1945.26V2015.05H1481.05V1945.26H1552.37Z" fill="white"/>
<path d="M1480.03 1945.26H1481.05M1481.05 1945.26H1552.37V2015.05H1481.05V1945.26ZM1946.28 3516.32V3581.5H2202.42V3496.63H2479.26V3404.35H2669.95V3313.61H2853.49V3220.56H2945.77V3129.3H3037.02V3036.26H3130.84V2852.72H3221.58V2761.98H3312.07V2483.09H3405.12V2202.93H3491.52V1478.75H3404.35V1202.94H3313.61V921.24H3221.58V826.148H3129.3V644.657H3036.26V551.866H2945V461.12H2851.95V368.84H2669.95V276.816H2571.79V183.003H2292.4V93.024H2019.39V1H1295.22V93.024H1020.17V185.304H742.049V277.583H651.303V368.84H461.12V459.586H375.486V553.4H276.049V643.379H184.025V826.915H94.0465V1013.52H1V1367.56H90.979V1460.35H258.412V1386.47H166.388V1184.53H371.141V1367.56H442.204V1276.04H541.641V1184.53H632.387V1086.63H908.97V994.348H1106.57V1202.94H1019.4V1276.04H1106.57V1367.56H1278.34V1202.94H1184.02V1086.63H1292.15V1184.53H1570.26V1276.04H1662.54V1367.56H1755.34V1480.29H1648.48V1386.47H1480.29V1554.93H1662.54V1642.61H1851.19V1734.89H1945.52V2015.05H2132.89V2200.12H2200.88V2015.05H2315.15V2108.6H2409.47V2200.12H2501.5V2313.36H2301.09V2219.8H2227.98V2313.36H2037.8V2393.11H2227.98V2575.37H2315.15V2664.58H2407.17V2873.17H2227.98V3036.26H2407.17V3148.99H2315.66V3332.52H2132.89V3423.27H2038.56V3516.32H1946.28ZM442.971 918.939H648.491V828.705H831.005V623.951H632.387V715.975H442.971V918.939ZM1552.12 1104.52H1644.14V1202.94H1755.34V992.303H1552.12V1104.52ZM2208.04 1294.19H2297.25V1385.96H2405.89V1274.51H2316.43V1183.76H2208.04V1294.19ZM2487.44 1554.16H2591.22V1735.65H2681.97V1847.1H2578.18V1756.36H2487.44V1554.16ZM2487.44 1920.72H2688.36V2015.05H2777.31V2128.8H2578.18V2038.82H2487.44V1920.72ZM2487.95 2778.59H2682.73V2683.5H2773.22V2582.53H2579.46V2664.58H2487.95V2778.59ZM2023.99 1647.97H2129.31V1741.02H2222.36V1940.15H2117.81V1847.61H2023.99V1647.97ZM928.397 1105.03H1000.48V1184.53H928.397V1105.03ZM652.07 1295.22H908.97V1367.56H652.07V1295.22ZM928.397 1388.52H1000.48V1460.6H928.397V1388.52ZM554.678 1480.54H629.064V1551.6H554.678V1480.54ZM652.07 1641.84H815.157V1571.03H652.07V1641.84ZM1111.42 1641.84H1275.02V1477.73H1111.42V1641.84ZM1019.14 1755.59H1092V1919.7H1019.14V1755.59ZM1111.42 1939.89H1185.04V2017.86H1111.42V1939.89ZM1387.49 1919.7H1460.35V1846.85H1387.49V1919.7ZM1480.03 1662.03H1644.39V1755.08H1735.4V2017.86H1663.31V1829.47H1572.57V1734.89H1479.52L1480.03 1662.03ZM1854.77 2038.82H1926.86V2200.12H1854.77V2038.82ZM1946.28 2217.24H2019.14V2294.7H1946.28V2217.24ZM1573.08 2413.82H1643.88V2485.65H1573.08V2413.82ZM1481.05 2393.11H1552.37V2313.36H1481.05V2393.11ZM1946.28 2595.57H2109.88V2683.5H2202.42V2854.77H2132.89V2762.74H2038.56V2664.58H1946.28V2595.57ZM1760.7 2683.5H1835.86V2762.74H1753.8V2683.5H1760.7ZM1852.98 2778.59H1925.58V2943.47H1852.98V2778.59ZM1573.08 2965.19H1644.65V3125.47H1573.08V2965.19ZM1753.8 3240.24H1835.86V3404.35H1661.78V3332.52H1753.8V3240.24ZM1852.98 3222.1V3148.99H2109.88V3313.61H1946.28V3222.1H1852.98ZM2132.89 3125.47V3060.54H2202.42V3125.47H2132.89Z" stroke="black"/>
</mask>
<g mask="url(#mask0)">
<rect x="-131.156" y="-63.1611" width="3794.46" height="3737.2" fill="#1E053A"/>
<path d="M180.957 915.616H90.7227V-87.1897H3529.86V3403.08H2576.39V3320.51H2680.69V3228.49H2775.78V3143.87H2867.8V2951.14H2586.87V2860.13H2680.69V2774.76H2768.11V2584.83H2586.87V2675.83H2483.35V2584.83H2586.87V2495.62H2768.11V2584.83H2859.37V2867.8H2961.87V2675.83H3046.23V2394.9H2867.8V2212.64H2774.76V2304.67H2768.11H2680.69V2212.64H2774.76V1925.83H2680.69V1836.62H2774.76V1925.83H2867.8V2212.64H3046.23V1940.15H2957.01V1744.6H2854.51V1656.15H2680.69V1473.89H2771.94V1287.8H2680.69V1096.09H2492.8V1193.73H2597.35V1473.89H2492.8V1287.8H2403.59V1193.73H2303.9V1096.09H2124.45V1287.8H2224.15V1466.23H2119.6V1379.83H2031.41V1096.09H2124.45V912.804H2025.78V825.381H1942.19V912.804H1845.31V1004.06H1942.19V1096.09H1845.31V1193.73H1746.64V1096.09H1845.31V1004.06H1746.64V912.804H1651.55V816.946H1746.64V639.289H1651.55V543.43H1561.32V459.842H1470.32V632.642H1568.99V825.381H1470.32V721.088H1380.08V639.289H1195.01V816.946H1289.85V912.804H1195.01V816.946H1105.54V730.546H1010.71V632.642H1105.54V543.43H1190.15V459.842H836.117V632.642H923.284V816.946H821.802V632.642H730.545V543.43H552.121V639.289H364.238V730.546H272.981V823.592H180.957V915.616Z" fill="#290552"/>
<path d="M2397.97 1925.83H2491.01V2112.95H2586.87V2212.64H2491.01V2112.95H2397.97V1925.83Z" fill="#290552"/>
<path d="M1561.83 450.639H1746.13V540.363H1849.4V638.266H1746.13V540.363H1561.83V450.639Z" fill="#36056F"/>
<path d="M2123.94 630.853H2308.76V725.433H2393.11V820.013H2400.27H2490.25V909.992H2400.27V820.013H2393.11V725.433H2308.76H2123.94V630.853Z" fill="#36056F"/>
<path fill-rule="evenodd" clip-rule="evenodd" d="M368.074 549.054H456.263V457.541H732.591V366.028H1017.1V276.305H1288.57V176.357H1556.46V276.305H1746.13V366.028H1849.4V276.305H1936.06V176.357H2123.94V356.059H2030.9V457.541H2308.76V544.197H2400.27V457.541H2676.6V630.853H2585.08V730.546H2676.6V998.693H2768.11V1098.39H2952.93V1189.9H3232.58V1376.5H3057.73V1286.52H2861.41V1376.5H2768.11V1561.06H2861.41V1657.69H3057.73V1561.06H2861.41V1376.5H3057.73V1474.66H3134.42V1749.2H3232.58V1657.69H3319.23V1749.2H3412.28V2108.86H3330.73V2030.64H3232.58V2207.02H3134.42V2305.18H3232.58V2491.53H3134.42V2767.85H3046.23V3045.97H2951.39V3130.84H3594.54V-66.4843H339.955V549.054H368.074ZM2768.11 998.693H3046.48V820.013H2952.93V730.546H2768.11V998.693Z" fill="#36056F"/>
<path d="M2393.11 725.433H2308.76V820.013H2393.11V725.433Z" fill="#36056F"/>
</g>
</svg>
