<svg width="36" height="36" viewBox="0 0 36 36" fill="none" xmlns="http://www.w3.org/2000/svg">
<path class="icon-stroke" d="M3 7.63966H1.5V9.13966V27.0552V28.5552H3H3.01056V30.017H4.45615V31.4951H5.95615H5.98295V31.5219V33.0219H7.48295H7.50975V34.5H9.00975H26.974H28.474V33.0219H28.5008H30.0008V31.5219V31.4951H30.0276H31.5276V30.017H33.0219V28.5552H34.5V27.0552V9.13966V7.63966H33H32.9732V7.53164V6.03164H31.4951V4.53733H29.9951H29.9683V3.05926H28.4903V1.56494H26.9903H9.00975H7.50975V3.05926H7.48295H5.98295V4.53733H5.95615H4.45615V6.03164H3.01056V7.53164V7.63966H3Z" fill="#8B72EB" stroke="var(--navbar-color)" stroke-width="2"/>
<mask id="mask0" mask-type="alpha" maskUnits="userSpaceOnUse" x="3" y="3" width="30" height="30">
<path d="M4.51056 9.13966H3V27.0552H4.51056V28.517H5.95615V29.9951H7.48295V31.5219H9.00975V33H26.974V31.5219H28.5008V29.9951H30.0276V28.517H31.5219V27.0552H33V9.13966H31.4732V7.53164H29.9951V6.03733H28.4683V4.55926H26.9903V3.06494H9.00975V4.55926H7.48295V6.03733H5.95615V7.53164H4.51056V9.13966Z" fill="white"/>
</mask>
<g mask="url(#mask0)">
<path d="M14.987 10.5368V13.5417H13.5414V15.0523H10.3741V13.5417H7.41799V12.0961H4.34814V4.55957H11.9334V7.58069H13.5414V10.5368H14.987Z" fill="#DEB4FF"/>
<g filter="url(#filter0_d)">
<path d="M21.013 25.5448V22.54H22.4586V21.0294H25.6259V22.54H28.582V23.9856H31.6519V32.0581H24.0666V28.501H22.4586V25.5448H21.013Z" fill="#DEB4FF"/>
</g>
<path d="M14.987 25.5449V22.5401H13.5414V21.0295H10.3741V22.5401H7.41799V23.9857H4.34814V32.1069H11.9334V28.5011H13.5414V25.5449H14.987Z" fill="#760AFF"/>
<path d="M25.4959 15.1003L22.491 15.1003L22.491 13.6547L20.9805 13.6547L20.9805 10.4874L22.491 10.4874L22.491 7.53127L23.9366 7.53127L23.9366 4.46143L31.4731 4.46143L31.4731 12.0467L28.452 12.0467L28.452 13.6547L25.4959 13.6547L25.4959 15.1003Z" fill="#760AFF"/>
<path fill-rule="evenodd" clip-rule="evenodd" d="M3 9.13966H4.51056V27.0552H3V9.13966ZM5.95615 28.517H4.51056V27.0552H5.95615V28.517ZM7.48295 29.9951H5.95615V28.517H7.48295V29.9951ZM7.48295 29.9951H9.00975V31.5219H7.48295V29.9951ZM4.51056 9.13966H5.95615V7.53164H4.51056V9.13966ZM9.00975 33V31.8143H26.974V33H9.00975ZM28.5008 31.5219H26.974V29.9951H28.5008V31.5219ZM30.0276 28.517V29.9951H28.5008V28.517H30.0276ZM31.5219 27.0552V28.517H30.0276V27.0552H31.5219ZM31.4732 9.13966H33V27.0552H31.5219L31.4732 9.13966ZM29.9951 7.53164H31.4732V9.13966H29.9951V7.53164ZM28.4683 6.03733H29.9951V7.53164H28.4683V6.03733ZM28.4683 6.03733V4.55926H26.9903V3.06494H9.00975V4.55926H7.48295V6.03733H9.00975V4.55926H26.9903V6.03733H28.4683Z" fill="#DEB4FF"/>
<path fill-rule="evenodd" clip-rule="evenodd" d="M5.95615 7.53164V6.03733H7.48295V7.53164H5.95615Z" fill="#DEB4FF"/>
<path d="M11.9819 21.0126V15.0679H13.4438V13.5411H15.0193V12.063H21.0128V13.5411H22.5396V15.0679H23.9852V21.0126H22.5396V22.5232H21.0128V24.05H15.0193V22.5232H13.4438V21.0126H11.9819Z" fill="#6621D6"/>
<path d="M14.9545 21.0293H13.4927V15.0196H14.9545V13.5415H20.9643V15.0196H22.4423V21.0293H20.9643V22.5886H14.9545V21.0293Z" fill="white"/>
<path d="M19.4865 16.5791H16.5142V19.5515H19.4865V16.5791Z" fill="#232A43"/>
</g>
<defs>
<filter id="filter0_d" x="17.0132" y="21.0293" width="18.6389" height="19.0287" filterUnits="userSpaceOnUse" color-interpolation-filters="sRGB">
<feFlood flood-opacity="0" result="BackgroundImageFix"/>
<feColorMatrix in="SourceAlpha" type="matrix" values="0 0 0 0 0 0 0 0 0 0 0 0 0 0 0 0 0 0 127 0"/>
<feOffset dy="4"/>
<feGaussianBlur stdDeviation="2"/>
<feColorMatrix type="matrix" values="0 0 0 0 0 0 0 0 0 0 0 0 0 0 0 0 0 0 0.25 0"/>
<feBlend mode="normal" in2="BackgroundImageFix" result="effect1_dropShadow"/>
<feBlend mode="normal" in="SourceGraphic" in2="effect1_dropShadow" result="shape"/>
</filter>
</defs>
</svg>


