<svg
						width="113"
						height="104"
						viewBox="0 0 113 104"
						fill="none"
					>
						<mask
							id="mask100"
							mask-type="alpha"
							maskUnits="userSpaceOnUse"
							x="0"
							y="0"
							width="113"
							height="105"
						>
							<path
								d="M0 79.0007V25.0007V11.0007H12V0.000747681H95.1203L101.5 0V11.0007H113V79.0007V93.0007H101.5V104.001H17.8797H12V93.0007H0V79.0007Z"
								fill="#fff"
							/>
						</mask>
						<g mask="url(#mask100)">
							<rect
								x="-5"
								y="-10.9993"
								width="135"
								height="122"
								fill="#1DA1F2"
							/>
							<path
								d="M12.5 25V52.5H0V0H52.5V2.5V11H44.5H31.5H27.5V25H12.5Z"
								fill="#4FB9FA"
							/>
							<path
								d="M27.9435 37.3041H23V32.3082H38.3564V37.4082H48.664V42.4041H58.9717V32.3082H64.2308V27H79.6923V32.3082H83.7943V27H90V32.3082H84.9513V47.5041H79.6923V62.8041H74.6436V67.9041H69.2794V73.1082H58.9717V78H33.4129V73.1082H38.3564V67.9041H43.5102V62.8041H33.4129V57.7041H38.3564V52.5H27.9435V47.5041H33.4129V42.4041H27.9435V37.3041Z"
								fill="white"
							/>
						</g>
					</svg>