<svg
						width="113"
						height="104"
						viewBox="0 0 113 104"
						fill="none"
						xmlns="http://www.w3.org/2000/svg"
					>
						<mask
							id="mask101"
							mask-type="alpha"
							maskUnits="userSpaceOnUse"
							x="0"
							y="0"
							width="113"
							height="105"
						>
							<path
								d="M0 79.0007V25.0007V11.0007H12V0.000747681H95.1203L101.5 0V11.0007H113V79.0007V93.0007H101.5V104.001H17.8797H12V93.0007H0V79.0007Z"
								fill="#fff"
							/>
						</mask>
						<g mask="url(#mask101)">
							<rect
								x="-5"
								y="-10.9993"
								width="135"
								height="122"
								fill="#FA0F17"
							/>
							<path
								d="M12.5 25V52.5H0V0H52.5V2.5V11H44.5H31.5H27.5V25H12.5Z"
								fill="#FF4A4A"
							/>
							<path
								d="M43.5 30.0007H39.5H39V76.0007H43.5V72.0007H52V67.5007H60V63.5007H68.5V59.5007H77V55.0007H81V51.0007H77V46.5007H76.5H68.5V42.5007H60V38.5007H52V34.5007H43.5V30.0007Z"
								fill="white"
							/>
						</g>
					</svg>