<svg width="36" height="24" viewBox="0 0 36 24" fill="none" xmlns="http://www.w3.org/2000/svg">
<path d="M36 23.2919H2.16228V14.7945H0V8.49737H2.16228V0H36V23.2919Z" fill="#6203AE"/>
<mask id="mask0" mask-type="alpha" maskUnits="userSpaceOnUse" x="0" y="0" width="36" height="24">
<path d="M36 23.2919H2.16228V14.7945H0V8.49737H2.16228V0H36V23.2919Z" fill="white"/>
</mask>
<g mask="url(#mask0)">
<path d="M8.38375 23.2544V-0.0374942V-0.378906H36.4554V23.2544H8.38375Z" fill="#22E4FF"/>
<path d="M6.33528 8.45987H4.21094V14.795H6.33528V8.45987Z" fill="#22E4FF"/>
<path d="M33.8757 21.168H10.5459V2.20068H33.8757V21.168Z" fill="#7509CC"/>
<path d="M31.7514 4.249H10.5459V2.1626H33.9137V21.1299H31.7514V4.249Z" fill="#4F008D"/>
<path d="M14.7946 10.5459H12.6323V12.6702H14.7946V10.5459Z" fill="#22E4FF"/>
<path d="M19.0433 12.6702H16.7672V16.9189H27.5406V12.6702H25.3404V14.7187H19.0433V12.6702Z" fill="#22E4FF"/>
<path d="M31.7514 12.6702H29.5512V10.5459H31.7514V12.6702Z" fill="#22E4FF"/>
</g>
</svg>
